<svg width="725" height="266" viewBox="0 0 725 266" fill="none" xmlns="http://www.w3.org/2000/svg">
<path d="M321.825 70.42V150H312.97V79.85H311.36L288.245 147.125H278.355L255.24 79.85H253.63V150H244.775V70.42H260.76L283.3 137.81L305.84 70.42H321.825ZM352.397 151.15C347.107 151.15 343.082 149.655 340.322 146.665C337.562 143.675 336.182 139.382 336.182 133.785C336.182 128.265 337.562 124.163 340.322 121.48C343.159 118.797 347.644 117.148 353.777 116.535L371.832 114.81V109.865C371.832 102.582 368.689 98.94 362.402 98.94C356.192 98.94 348.64 99.4383 339.747 100.435L339.402 93.88C347.605 92.1933 355.08 91.35 361.827 91.35C368.344 91.35 373.059 92.845 375.972 95.835C378.962 98.7483 380.457 103.425 380.457 109.865V139.305C380.687 142.142 382.91 143.828 387.127 144.365L386.782 151.15C380.725 151.15 376.164 149.617 373.097 146.55C366.274 149.617 359.374 151.15 352.397 151.15ZM353.777 143.905C358.914 143.905 364.05 143.023 369.187 141.26L371.832 140.34V121.365L354.812 122.975C351.362 123.282 348.87 124.278 347.337 125.965C345.804 127.652 345.037 130.105 345.037 133.325C345.037 140.378 347.95 143.905 353.777 143.905ZM415.529 151.15C410.929 151.15 405.294 150.613 398.624 149.54L395.174 148.965L395.634 141.49C404.604 142.793 411.198 143.445 415.414 143.445C420.014 143.445 423.426 142.717 425.649 141.26C427.949 139.727 429.099 137.312 429.099 134.015C429.099 131.638 428.524 129.837 427.374 128.61C426.301 127.383 424.883 126.502 423.119 125.965C421.433 125.428 419.018 124.93 415.874 124.47L412.999 124.01C408.399 123.243 404.796 122.323 402.189 121.25C399.583 120.177 397.628 118.682 396.324 116.765C395.021 114.772 394.369 112.05 394.369 108.6C394.369 102.39 396.248 97.9817 400.004 95.375C403.761 92.7683 409.089 91.465 415.989 91.465C421.433 91.465 426.991 91.9633 432.664 92.96L435.884 93.535L435.654 100.895C427.374 99.6683 420.896 99.055 416.219 99.055C411.773 99.055 408.438 99.745 406.214 101.125C404.068 102.505 402.994 104.652 402.994 107.565C402.994 109.635 403.531 111.245 404.604 112.395C405.678 113.468 407.058 114.273 408.744 114.81C410.508 115.27 412.961 115.768 416.104 116.305L418.979 116.88C423.733 117.723 427.413 118.72 430.019 119.87C432.626 120.943 434.543 122.515 435.769 124.585C437.073 126.655 437.724 129.53 437.724 133.21C437.724 139.42 435.884 143.982 432.204 146.895C428.601 149.732 423.043 151.15 415.529 151.15ZM450.931 67.43H459.556V95.72C462.93 94.1867 466.035 93.075 468.871 92.385C471.785 91.695 474.736 91.35 477.726 91.35C482.71 91.35 486.543 92.27 489.226 94.11C491.986 95.8733 493.903 98.7867 494.976 102.85C496.126 106.913 496.701 112.51 496.701 119.64V150H488.076V119.87C488.076 114.197 487.731 109.942 487.041 107.105C486.428 104.192 485.201 102.122 483.361 100.895C481.598 99.6683 478.953 99.055 475.426 99.055C471.056 99.055 466.495 99.9367 461.741 101.7L459.556 102.505V150H450.931V67.43ZM530.639 151.15C525.732 151.15 521.937 150.268 519.254 148.505C516.647 146.665 514.807 143.713 513.734 139.65C512.661 135.587 512.124 129.875 512.124 122.515V92.5H520.749V122.4C520.749 128.15 521.056 132.482 521.669 135.395C522.282 138.308 523.394 140.378 525.004 141.605C526.614 142.832 529.106 143.445 532.479 143.445C537.692 143.445 543.059 142.027 548.579 139.19V92.5H557.204V150H548.579V145.975C545.436 147.815 542.522 149.157 539.839 150C537.156 150.767 534.089 151.15 530.639 151.15ZM573.793 92.5H582.303V100.32C588.896 95.7967 595.911 92.7683 603.348 91.235V99.975C600.358 100.588 597.099 101.547 593.573 102.85C590.123 104.077 587.363 105.227 585.293 106.3L582.418 107.795V150H573.793V92.5ZM626.084 151.15C620.794 151.15 616.769 149.655 614.009 146.665C611.249 143.675 609.869 139.382 609.869 133.785C609.869 128.265 611.249 124.163 614.009 121.48C616.845 118.797 621.33 117.148 627.464 116.535L645.519 114.81V109.865C645.519 102.582 642.375 98.94 636.089 98.94C629.879 98.94 622.327 99.4383 613.434 100.435L613.089 93.88C621.292 92.1933 628.767 91.35 635.514 91.35C642.03 91.35 646.745 92.845 649.659 95.835C652.649 98.7483 654.144 103.425 654.144 109.865V139.305C654.374 142.142 656.597 143.828 660.814 144.365L660.469 151.15C654.412 151.15 649.85 149.617 646.784 146.55C639.96 149.617 633.06 151.15 626.084 151.15ZM627.464 143.905C632.6 143.905 637.737 143.023 642.874 141.26L645.519 140.34V121.365L628.499 122.975C625.049 123.282 622.557 124.278 621.024 125.965C619.49 127.652 618.724 130.105 618.724 133.325C618.724 140.378 621.637 143.905 627.464 143.905ZM671.161 67.43H679.786V95.72C683.159 94.1867 686.264 93.075 689.101 92.385C692.014 91.695 694.966 91.35 697.956 91.35C702.939 91.35 706.773 92.27 709.456 94.11C712.216 95.8733 714.133 98.7867 715.206 102.85C716.356 106.913 716.931 112.51 716.931 119.64V150H708.306V119.87C708.306 114.197 707.961 109.942 707.271 107.105C706.658 104.192 705.431 102.122 703.591 100.895C701.828 99.6683 699.183 99.055 695.656 99.055C691.286 99.055 686.724 99.9367 681.971 101.7L679.786 102.505V150H671.161V67.43Z" fill="white"/>
<path d="M103.498 66.4413C103.662 61.4613 101.568 57.6067 97.3236 55.1707C92.7916 52.5707 87.5196 52.0427 83.6836 55.5187C74.6236 63.7293 65.925 72.384 57.6076 81.348C54.089 85.1413 54.2943 90.3213 56.861 94.9787C59.2396 99.2947 63.185 101.445 67.9503 101.676C76.1343 102.075 103.421 74.8667 103.498 66.4413ZM70.0183 152.859C73.2343 152.621 76.1263 151.765 78.2236 149.685C94.573 133.477 110.998 117.34 126.993 100.787C131.884 95.7253 131.552 89.1973 126.634 84.0867C121.601 78.856 114.778 77.2667 109.278 82.5187C92.3996 98.6387 75.961 115.228 59.669 131.944C56.0823 135.624 55.8196 140.736 58.4143 145.58C60.9503 150.315 65.029 152.472 70.0183 152.859V152.859ZM86.6116 229.171C86.637 223.033 82.9903 220.321 77.6436 218.161C57.2663 209.931 37.125 201.112 16.753 192.867C5.35296 188.252 0.291623 179.359 0.207623 167.999C-0.10971 124.908 -0.0243747 81.8107 0.203625 38.7187C0.296959 20.8933 11.0063 10.46 28.777 10.3787C77.0543 10.1587 125.332 10.064 173.61 10C176.802 9.99601 179.994 10.6613 183.186 11.0147C182.241 14.748 181.77 18.684 180.27 22.1787C173.018 39.0853 165.013 55.684 158.23 72.7707C153.872 83.7507 146.602 93.7667 146.178 106.181C140.654 106.18 136.284 108.481 132.492 112.459C126.896 118.328 121.005 123.916 115.322 129.705C104.528 140.704 106.468 149.572 120.854 155.279C114.329 178.165 102.965 199.051 93.6783 220.792C92.2396 224.16 91.3663 228.42 86.6116 229.171" fill="#28C9B4"/>
<path d="M86.6109 229.171C91.3669 228.421 92.2403 224.161 93.6789 220.793C102.966 199.05 114.33 178.165 120.854 155.279C124.815 154.907 128.358 153.549 131.224 150.721C137.407 144.621 143.582 138.514 149.722 132.371C160.551 121.537 159.499 113.853 146.178 106.181C146.603 93.7674 153.872 83.75 158.231 72.7713C165.014 55.6833 173.019 39.086 180.271 22.1793C181.77 18.6847 182.242 14.7487 183.187 11.0153C196.162 14.1673 204.207 23.29 204.328 37.3554C204.696 80.114 204.612 122.878 204.426 165.639C204.383 175.166 200.134 182.983 192.399 188.935C181.238 197.527 170.29 206.395 159.247 215.142C139.783 230.561 120.342 246.01 100.823 261.361C97.8843 263.671 95.0949 267.122 90.5789 265.163C85.7443 263.067 85.9003 258.693 86.0069 254.406C86.2149 245.994 86.4109 237.583 86.6109 229.171Z" fill="#28C9B4"/>
<path d="M180.231 85.6128C176.823 82.2048 118.882 32.4435 111.383 32.4435C103.885 32.4435 66.7528 26.9902 56.6888 32.4435C46.6248 37.8968 36.3995 34.0995 32.9915 79.2835C29.5835 124.467 41.8528 142.873 45.9435 157.869C50.0328 172.866 70.1062 192.195 85.9728 197.406C101.839 202.617 137.286 195.361 152.283 184.454C167.279 173.547 191.819 126.293 191.819 119.586C191.819 112.879 180.231 85.6128 180.231 85.6128Z" fill="#28C9B4"/>
<path d="M156.48 124.654C156.48 134.279 156.48 143.904 156.48 153.53C156.48 154.131 156.46 154.734 156.485 155.334C156.591 157.794 157.817 159.42 159.637 159.271C162.007 159.076 162.695 157.492 162.689 155.311C162.661 142.248 162.676 129.186 162.676 116.123C162.676 108.99 162.664 101.856 162.681 94.7244C162.691 91.4311 164.435 89.3204 167.169 89.2018C169.891 89.0844 171.805 91.0244 172.152 94.3124C172.241 95.1631 172.207 96.0284 172.207 96.8871C172.209 116.395 172.237 135.903 172.168 155.411C172.161 157.504 172.439 158.474 174.908 158.354C179.356 158.136 181.611 159.856 181.592 162.898C181.575 165.984 179.377 167.49 174.885 167.49C159.588 167.49 144.291 167.49 128.993 167.488C128.22 167.488 127.439 167.544 126.675 167.454C124.128 167.155 122.341 165.187 122.389 162.804C122.436 160.455 124.341 158.534 126.847 158.296C128.364 158.152 130.375 158.968 131.288 157.916C132.352 156.69 131.637 154.627 131.64 152.935C131.668 133.942 131.657 114.95 131.66 95.9564C131.66 95.0978 131.604 94.2284 131.715 93.3818C132.036 90.9364 134.145 89.1178 136.485 89.1884C138.983 89.2658 140.979 91.2351 140.989 93.8551C141.031 103.308 141.007 112.762 141.008 122.215C141.008 132.872 141.001 143.528 141.017 154.184C141.019 155.122 141.028 156.094 141.272 156.984C141.673 158.452 142.723 159.395 144.295 159.262C145.931 159.124 146.941 158.118 147.108 156.428C147.175 155.747 147.129 155.055 147.129 154.367C147.131 134.944 147.129 115.523 147.132 96.1004C147.132 95.2418 147.085 94.3738 147.185 93.5244C147.496 90.9071 149.623 89.0604 152.085 89.1991C154.58 89.3404 156.461 91.3151 156.468 93.9738C156.496 104.2 156.48 114.427 156.48 124.654Z" fill="white"/>
<path d="M34.6967 125.213C34.6967 114.901 34.7061 104.587 34.6901 94.2752C34.6874 91.8205 35.7954 90.1379 38.1141 89.4072C40.2621 88.7299 41.9794 89.5965 43.3114 91.3005C44.1754 92.4032 44.0461 93.7272 44.0461 95.0139C44.0461 114.693 44.0461 134.373 44.0474 154.051C44.0474 157.681 45.0181 159.313 47.1607 159.294C49.2674 159.277 50.1687 157.689 50.1687 153.997C50.1687 134.575 50.1687 115.154 50.1701 95.7325C50.1701 95.0445 50.1301 94.3525 50.1927 93.6712C50.4367 91.0432 52.4821 89.1352 54.9527 89.1899C57.5474 89.2459 59.4727 91.2525 59.5047 94.0845C59.5527 98.4672 59.5194 102.85 59.5194 107.233C59.5194 122.702 59.5194 138.17 59.5194 153.638C59.5194 154.241 59.4981 154.842 59.5247 155.443C59.6314 157.894 60.9021 159.493 62.7514 159.271C64.9434 159.01 65.6621 157.535 65.6581 155.438C65.6261 142.118 65.6407 128.798 65.6421 115.478C65.6421 108.431 65.6461 101.385 65.6407 94.3379C65.6394 91.9125 66.7061 90.1819 69.0261 89.4232C71.1727 88.7232 72.8834 89.5832 74.2487 91.2552C75.1461 92.3552 74.9901 93.6765 74.9901 94.9592C74.9927 109.567 74.9914 124.177 74.9914 138.786C74.9914 144.458 75.0927 150.133 74.9394 155.801C74.8821 157.905 75.5754 158.563 77.5474 158.305C78.3927 158.194 79.2687 158.237 80.1221 158.305C82.6381 158.503 84.5674 160.451 84.6247 162.791C84.6807 165.109 82.8127 167.146 80.3127 167.457C79.8047 167.519 79.2834 167.489 78.7687 167.489C62.9554 167.49 47.1434 167.49 31.3314 167.486C30.6461 167.486 29.9434 167.515 29.2767 167.389C26.8567 166.925 25.3007 164.971 25.4234 162.639C25.5434 160.381 27.3727 158.577 29.7647 158.291C31.3527 158.102 33.5674 159.079 34.3807 157.818C35.1727 156.587 34.6861 154.506 34.6901 152.798C34.7047 143.603 34.6967 134.407 34.6967 125.213Z" fill="white"/>
<path d="M58.1892 72.7444C66.6106 72.7444 75.0306 72.7298 83.4519 72.7498C90.2626 72.7644 96.5146 74.5778 101.94 78.7924C103.007 79.6218 103.684 79.6671 104.795 78.8284C110.401 74.5938 116.797 72.7284 123.797 72.7378C140.811 72.7591 157.824 72.7444 174.839 72.7444C175.525 72.7444 176.217 72.7044 176.9 72.7684C179.753 73.0364 181.701 75.0604 181.593 77.6058C181.485 80.1538 179.445 81.9391 176.513 81.9418C160.101 81.9551 143.689 81.9671 127.277 81.9404C118.284 81.9258 110.291 84.2271 104.411 91.5564C103.789 92.3311 103.408 92.5578 102.709 91.6071C97.1066 83.9991 89.0612 81.9791 80.2146 81.9591C63.8026 81.9218 47.3906 81.9498 30.9786 81.9431C29.9572 81.9431 28.9119 82.0924 27.9599 81.5218C26.2786 80.5138 25.2746 79.0858 25.4426 77.0818C25.6079 75.1084 26.6786 73.7564 28.5852 73.0898C29.5826 72.7404 30.6039 72.7404 31.6372 72.7418C40.4879 72.7471 49.3386 72.7444 58.1892 72.7444Z" fill="white"/>
<path d="M65.7855 56.175C73.5175 56.175 81.2495 56.1296 88.9815 56.1923C93.6789 56.2296 98.2149 57.0256 102.19 59.783C102.976 60.3283 103.643 60.439 104.518 59.8443C108.814 56.9256 113.699 56.1763 118.752 56.1723C134.56 56.1576 150.367 56.1603 166.175 56.1723C169.539 56.175 171.455 57.8963 171.428 60.7976C171.402 63.6323 169.419 65.3563 166.062 65.3643C150.771 65.403 135.479 65.3856 120.187 65.4616C114.595 65.4896 109.255 66.5776 104.704 70.1296C103.926 70.7376 103.311 70.9136 102.467 70.2043C97.8455 66.3216 92.2495 65.507 86.5162 65.4696C71.3109 65.3683 56.1042 65.4056 40.8989 65.363C37.0162 65.351 34.7842 62.8216 35.7029 59.5443C36.3802 57.1243 38.0882 56.1523 40.5269 56.159C48.9469 56.1803 57.3669 56.167 65.7855 56.167V56.175Z" fill="white"/>
<path d="M240.911 199.796C242.528 200.906 244.891 201.833 247.38 201.833C251.07 201.833 253.226 199.657 253.226 196.508C253.226 193.59 251.732 191.924 247.959 190.302C243.399 188.497 240.579 185.857 240.579 181.458C240.579 176.597 244.187 172.985 249.618 172.985C252.479 172.985 254.552 173.725 255.796 174.513L254.802 177.8C253.888 177.245 252.023 176.318 249.494 176.318C245.679 176.318 244.228 178.865 244.228 180.996C244.228 183.913 245.928 185.349 249.784 187.016C254.511 189.053 256.916 191.6 256.916 196.184C256.916 201 253.723 205.166 247.131 205.166C244.436 205.166 241.492 204.288 239.998 203.176L240.911 199.796Z" fill="white"/>
<path d="M274.291 175.856V182.293H279.515V185.394H274.291V197.48C274.291 200.258 274.995 201.833 277.028 201.833C277.982 201.833 278.686 201.694 279.143 201.556L279.308 204.612C278.603 204.936 277.484 205.166 276.074 205.166C274.374 205.166 273.006 204.565 272.135 203.454C271.098 202.249 270.724 200.258 270.724 197.62V185.394H267.615V182.293H270.724V176.921L274.291 175.856Z" fill="white"/>
<path d="M304.394 191.322C304.434 188.728 303.439 184.7 299.335 184.7C295.645 184.7 294.029 188.496 293.738 191.322H304.394ZM293.697 194.239C293.779 199.75 296.93 202.018 300.579 202.018C303.191 202.018 304.766 201.508 306.135 200.86L306.757 203.778C305.473 204.426 303.274 205.167 300.082 205.167C293.903 205.167 290.213 200.628 290.213 193.868C290.213 187.107 293.779 181.783 299.626 181.783C306.177 181.783 307.918 188.219 307.918 192.34C307.918 193.174 307.835 193.822 307.794 194.239H293.697Z" fill="white"/>
<path d="M331.305 193.266C327.325 193.174 322.805 193.961 322.805 198.314C322.805 200.953 324.381 202.204 326.247 202.204C328.859 202.204 330.517 200.35 331.099 198.453C331.223 198.036 331.305 197.573 331.305 197.156V193.266ZM331.844 204.704L331.555 201.878H331.429C330.309 203.638 328.155 205.213 325.292 205.213C321.229 205.213 319.157 202.018 319.157 198.777C319.157 193.358 323.468 190.396 331.223 190.442V189.978C331.223 188.126 330.767 184.793 326.661 184.793C324.795 184.793 322.847 185.441 321.437 186.46L320.608 183.774C322.267 182.57 324.671 181.782 327.2 181.782C333.336 181.782 334.829 186.46 334.829 190.952V199.333C334.829 201.277 334.912 203.176 335.161 204.704H331.844Z" fill="white"/>
<path d="M362.693 191.414C362.693 190.905 362.652 190.21 362.528 189.701C361.989 187.108 359.999 184.978 357.263 184.978C353.489 184.978 351.249 188.682 351.249 193.637C351.249 198.174 353.24 201.925 357.179 201.925C359.625 201.925 361.864 200.12 362.528 197.064C362.652 196.508 362.693 195.952 362.693 195.304V191.414ZM366.341 171.828V198.916C366.341 200.908 366.384 203.176 366.508 204.704H363.232L363.067 200.814H362.984C361.864 203.314 359.417 205.213 356.143 205.213C351.291 205.213 347.559 200.629 347.559 193.822C347.517 186.366 351.665 181.782 356.556 181.782C359.625 181.782 361.699 183.404 362.611 185.209H362.693V171.828H366.341Z" fill="white"/>
<path d="M382.018 182.292L386.412 195.535C386.868 197.016 387.366 198.776 387.698 200.12H387.78C388.154 198.776 388.568 197.063 389.066 195.443L393.046 182.292H396.903L391.43 198.267C388.818 205.954 387.035 209.89 384.546 212.298C382.764 214.058 380.982 214.752 380.068 214.936L379.156 211.511C380.068 211.187 381.27 210.539 382.348 209.519C383.344 208.64 384.588 207.066 385.418 204.982C385.583 204.566 385.708 204.24 385.708 204.01C385.708 203.778 385.624 203.454 385.459 202.944L378.038 182.292H382.018Z" fill="white"/>
<path d="M429.329 188.914C430.117 189.146 431.111 189.238 432.313 189.238C436.667 189.238 439.321 186.876 439.321 182.57C439.321 178.448 436.709 176.458 432.729 176.458C431.153 176.458 429.95 176.596 429.329 176.782V188.914ZM425.721 173.864C427.463 173.54 429.743 173.263 432.645 173.263C436.211 173.263 438.823 174.19 440.481 175.856C442.017 177.338 442.927 179.607 442.927 182.386C442.927 185.21 442.182 187.432 440.771 189.052C438.865 191.322 435.754 192.479 432.231 192.479C431.153 192.479 430.157 192.434 429.329 192.202V204.704H425.721V173.864Z" fill="white"/>
<path d="M465.445 193.266C461.465 193.174 456.945 193.961 456.945 198.314C456.945 200.953 458.521 202.204 460.386 202.204C462.998 202.204 464.657 200.35 465.238 198.453C465.362 198.036 465.445 197.573 465.445 197.156V193.266ZM465.983 204.704L465.694 201.878H465.569C464.45 203.638 462.294 205.213 459.431 205.213C455.369 205.213 453.297 202.018 453.297 198.777C453.297 193.358 457.607 190.396 465.362 190.442V189.978C465.362 188.126 464.906 184.793 460.801 184.793C458.934 184.793 456.986 185.441 455.577 186.46L454.747 183.774C456.406 182.57 458.81 181.782 461.339 181.782C467.475 181.782 468.969 186.46 468.969 190.952V199.333C468.969 201.277 469.051 203.176 469.301 204.704H465.983Z" fill="white"/>
<path d="M497.457 203.871C496.502 204.427 494.387 205.167 491.693 205.167C485.639 205.167 481.701 200.583 481.701 193.729C481.701 186.831 485.929 181.829 492.481 181.829C494.637 181.829 496.543 182.431 497.539 182.987L496.71 186.136C495.839 185.58 494.471 185.071 492.481 185.071C487.878 185.071 485.39 188.868 485.39 193.544C485.39 198.731 488.375 201.925 492.357 201.925C494.429 201.925 495.798 201.324 496.834 200.815L497.457 203.871Z" fill="white"/>
<path d="M522.502 191.322C522.542 188.728 521.547 184.7 517.443 184.7C513.753 184.7 512.137 188.496 511.846 191.322H522.502ZM511.805 194.239C511.887 199.75 515.038 202.018 518.687 202.018C521.299 202.018 522.874 201.508 524.243 200.86L524.865 203.778C523.581 204.426 521.382 205.167 518.19 205.167C512.011 205.167 508.321 200.628 508.321 193.868C508.321 187.107 511.887 181.783 517.734 181.783C524.285 181.783 526.026 188.219 526.026 192.34C526.026 193.174 525.943 193.822 525.902 194.239H511.805Z" fill="white"/>
</svg>
