<svg width="389" height="220" viewBox="0 0 389 220" fill="none" xmlns="http://www.w3.org/2000/svg">
<g clip-path="url(#clip0)">
<path d="M1.10826 219.732C1.10826 219.732 -7.07587 151.989 21.603 131.426C46.6368 113.545 67.4753 102.678 109.84 101.303C152.205 99.9273 175.52 99.9273 200.828 71.8675C226.137 43.8076 260.456 1.51149 298.763 0.0672323C335.695 -1.30825 358.321 10.3146 379.504 92.4309C400.686 174.547 378.816 216.981 378.128 217.669C377.647 218.15 1.10826 219.732 1.10826 219.732Z" fill="#E6F0EF"/>
<path d="M173.318 166.158C175.656 137.961 166.99 96.6965 177.1 90.9195C187.141 85.28 190.511 83.4231 200.896 71.9378C226.205 43.8779 260.454 1.51303 298.762 0.0687735C335.693 -1.30671 358.32 10.3161 379.502 92.4325C390.094 133.491 389.475 155.155 388.443 168.153C387.893 175.305 387.343 184.59 386.999 184.934C386.449 185.415 171.392 189.61 173.318 166.158Z" fill="#C6E7E3"/>
<path d="M87.6249 75.1702L84.5989 218.358C84.5989 219.39 87.3498 219.046 88.0376 219.046H92.164L91.4763 75.3765L116.029 76.0642L105.369 15.7493C104.818 12.6544 102.136 10.3161 98.9039 10.3161H81.9167C77.859 10.3161 74.3515 13.2046 73.6638 17.1935L63.2789 74.62L87.6249 75.1702Z" fill="#ADE3DD"/>
<path d="M63.9666 71.4564L114.997 72.4192L116.029 76.0642L63.3477 74.6887L63.9666 71.4564Z" fill="#1B9889"/>
<path d="M314.924 80.3282L314.511 180.601L378.196 180.739C378.196 180.739 378.677 127.92 376.133 77.3709L315.061 76.4769L314.924 80.3282Z" fill="#00B7A1"/>
<path d="M254.952 93.3265L253.302 180.876H307.702L307.358 93.3265H254.952Z" fill="#00B7A1"/>
<path d="M175.931 144.701L254.196 145.114L253.302 180.876L176.206 180.807L175.931 144.701Z" fill="#00B7A1"/>
<path d="M169.466 94.2206L169.672 181.082C169.672 181.082 170.154 186.516 175.381 186.791C180.608 187.066 386.38 187.135 386.38 187.135C386.38 187.135 388.237 181.357 387.48 181.151C386.724 180.945 176.206 180.945 176.206 180.945C176.206 180.945 176.275 177.85 176.275 175.924C176.275 173.724 176.137 91.6072 176.137 91.6072C174.074 92.6388 171.804 93.5329 169.466 94.2206Z" fill="white"/>
<path d="M174.005 102.817L382.185 104.124L383.285 108.594L174.005 109.626V102.817Z" fill="white"/>
<path d="M232.738 35.2124V181.014L238.24 181.426V31.4298L232.738 35.2124Z" fill="white"/>
<path d="M332.186 5.91458L332.048 181.014L337.138 180.601L337.963 9.35329L332.186 5.91458Z" fill="white"/>
<path d="M238.24 31.4298L357.082 32.1863L353.643 25.9966L245.049 25.9279L238.24 31.4298Z" fill="white"/>
<path d="M258.254 60.1774C264.939 60.1774 270.358 54.7581 270.358 48.0731C270.358 41.3881 264.939 35.9689 258.254 35.9689C251.569 35.9689 246.149 41.3881 246.149 48.0731C246.149 54.7581 251.569 60.1774 258.254 60.1774Z" fill="white"/>
<path d="M270.014 59.8335C274.382 59.8335 277.923 56.2925 277.923 51.9245C277.923 47.5565 274.382 44.0155 270.014 44.0155C265.646 44.0155 262.105 47.5565 262.105 51.9245C262.105 56.2925 265.646 59.8335 270.014 59.8335Z" fill="white"/>
<path d="M349.93 71.5251C356.729 71.5251 362.24 66.0135 362.24 59.2146C362.24 52.4156 356.729 46.904 349.93 46.904C343.131 46.904 337.619 52.4156 337.619 59.2146C337.619 66.0135 343.131 71.5251 349.93 71.5251Z" fill="white"/>
<path d="M337.206 68.8429C341.65 68.8429 345.253 65.2404 345.253 60.7964C345.253 56.3524 341.65 52.7498 337.206 52.7498C332.762 52.7498 329.16 56.3524 329.16 60.7964C329.16 65.2404 332.762 68.8429 337.206 68.8429Z" fill="white"/>
<path d="M343.946 213.062C343.121 209.555 342.846 205.016 342.296 204.947H341.677L335.762 205.016C335.762 205.016 334.524 210.655 333.905 212.994C333.836 213.131 333.768 213.544 333.63 213.819C333.493 214.232 333.493 214.644 333.493 215.057C333.63 217.189 334.455 219.046 336.312 219.94C338.444 220.971 340.026 222.003 342.227 219.94C344.496 217.877 344.772 216.57 343.946 213.062Z" fill="black"/>
<path d="M325.308 205.497L317.812 205.91C317.812 205.91 314.855 211.068 310.522 212.237C306.464 213.406 299.724 216.226 302.751 217.877C304.951 219.183 319.325 218.014 322.833 218.289C325.446 218.496 326.203 216.914 325.927 213.406C325.721 210.724 325.308 205.497 325.308 205.497Z" fill="black"/>
<path d="M316.368 112.239C316.368 112.239 311.347 153.435 311.003 156.117C310.66 158.8 312.723 172.554 312.723 175.168C312.723 177.781 317.606 205.91 317.606 205.91L325.377 205.566C325.377 205.566 323.795 164.164 324.002 162.169C324.208 160.175 332.667 136.173 332.667 136.173C332.667 136.173 333.286 142.5 333.286 144.563C333.286 146.627 335.625 205.153 335.625 205.153H342.433L352.062 118.911L351.924 117.26L316.368 112.239Z" fill="url(#paint0_linear)"/>
<path d="M339.27 32.599C339.27 32.599 331.773 35.4875 330.123 36.1752C328.472 36.863 327.509 38.9262 327.509 38.9262C327.509 38.9262 326.684 38.4448 326.684 39.8202C326.684 41.1957 327.372 44.3593 327.922 45.2534C328.816 46.6289 329.572 48.0731 330.329 49.5174C331.017 50.9617 330.742 53.9877 330.054 54.4004C329.366 54.813 316.712 66.2295 316.712 66.2295L306.258 98.4846L307.633 108.663L309.765 118.704C309.765 118.704 309.353 119.461 310.178 120.286C311.072 121.111 314.855 127.37 314.855 127.37L316.161 118.154L311.897 104.537L310.384 93.0514L320.425 72.5567L355.156 78.7464L358.939 101.098L351.924 120.148L350.686 129.433L356.601 124.275C356.945 124 357.632 122.556 357.907 121.799L361.415 111.896L364.028 96.0775C364.028 96.0775 342.089 56.5324 340.989 54.194C340.508 53.1624 341.058 50.549 341.333 49.3111C341.608 48.1419 342.158 46.6289 342.708 46.2162C343.534 45.3222 343.946 44.0155 344.153 42.8463C344.153 42.021 344.496 38.7886 343.671 39.5451C343.534 39.7515 342.915 38.7886 342.64 37.4819C342.158 35.4187 340.783 33.8369 339.27 32.599Z" fill="url(#paint1_linear)"/>
<path d="M336.45 64.854C335.9 65.3355 335.074 65.2667 334.524 64.7853C334.112 64.1663 333.768 63.5473 333.493 62.9284C332.942 61.828 328.678 55.5008 328.678 55.5008C328.678 55.5008 318.5 58.1142 316.849 59.1458C315.199 60.2462 313.686 61.7592 313.135 63.6849C312.585 65.6106 304.745 88.5124 304.332 89.9566C303.92 91.3321 301.925 93.6016 302.888 99.1723C303.851 104.812 309.147 119.254 309.697 119.392C310.247 119.53 315.886 116.779 315.886 116.779C315.886 116.779 311.416 98.8285 311.416 97.0404C311.416 95.2522 315.405 90.1629 317.056 86.7242C318.637 83.2855 319.875 80.2595 320.425 78.7464C320.976 77.2334 315.611 108.526 315.611 108.526C315.611 108.526 315.474 114.234 316.574 114.784C317.606 115.265 329.572 119.873 332.323 120.905C332.599 121.043 332.942 120.836 333.08 120.561L334.868 115.472C334.868 115.403 334.937 115.334 335.006 115.403C335.074 115.403 335.074 115.472 335.074 115.472L336.725 120.974C336.794 121.249 337.138 121.386 337.413 121.386L352.199 118.223C352.199 118.223 351.993 90.9882 352.268 86.3804C352.474 81.91 351.924 79.4342 352.749 80.6721C353.643 81.9788 357.357 94.2894 357.357 96.3526C357.357 98.4158 353.162 116.503 353.162 116.503L358.664 119.598C358.664 119.598 366.16 99.7225 366.504 97.1091C366.917 94.4957 367.054 93.1202 365.816 90.5068C364.579 87.8934 357.77 64.0975 357.77 64.0975C357.77 64.0975 357.082 61.209 352.062 59.696C347.041 58.1829 343.327 55.9822 342.433 56.0509C341.539 56.1197 338.788 61.3466 337.55 62.9284C337 63.6161 337.138 63.8912 336.45 64.854Z" fill="url(#paint2_linear)"/>
<path d="M339.201 32.6677C339.201 32.6677 330.81 35.7626 329.091 37.0005C327.784 37.9633 327.509 38.8574 327.509 38.8574C327.509 38.8574 326.615 38.4448 326.684 39.7515C326.753 41.0582 325.652 37.757 325.377 36.6566C325.171 35.625 325.102 32.6677 327.372 30.467C329.641 28.2662 332.186 26.6844 334.249 26.8219C336.312 26.9595 338.1 27.5784 339.751 29.1603C341.402 30.7421 341.814 30.6733 342.158 30.8108C342.502 30.9484 344.221 32.8053 344.428 34.7997C344.634 36.7942 344.015 39.7515 344.015 39.7515C344.015 39.7515 343.602 39.3388 343.19 39.6139C342.777 39.9578 342.64 37.6882 341.195 35.0061C340.232 33.0804 339.201 32.6677 339.201 32.6677Z" fill="url(#paint3_linear)"/>
<path opacity="0.07" d="M333.905 131.978C332.942 134.797 329.229 140.231 326.753 143.532C324.277 146.833 316.78 153.71 317.262 162.169C317.743 170.56 322.833 192.224 322.833 194.218C322.833 196.144 320.907 205.36 319.463 208.179C318.018 210.999 317.331 216.088 318.087 216.088C319.394 216.02 320.838 215.882 322.145 215.538C323.383 215.263 324.621 214.988 325.79 214.575C326.271 214.369 326.409 212.718 326.409 212.718C326.478 212.031 326.34 211.343 326.203 210.724C325.859 209.692 325.584 208.592 325.446 207.56C325.171 199.651 324.414 181.289 324.621 180.051C324.896 177.644 322.97 165.539 324.758 159.625C326.478 153.573 333.905 131.978 333.905 131.978Z" fill="black"/>
<path opacity="0.07" d="M315.818 116.916L314.511 126.82C314.511 126.82 315.818 128.883 316.161 127.163C316.574 125.444 319.256 122.212 317.537 119.873C315.955 117.535 315.818 116.916 315.818 116.916Z" fill="black"/>
<path opacity="0.07" d="M352.062 119.667L351.649 124.412L351.099 128.952C351.099 128.952 349.173 130.327 349.242 128.539C349.311 126.751 346.078 124.069 348.485 122.28C350.892 120.492 352.062 119.667 352.062 119.667Z" fill="black"/>
<path opacity="0.07" d="M328.61 55.6383C328.953 55.5695 327.028 56.0509 328.747 55.5008C331.704 54.5379 330.467 48.9672 330.467 48.9672C330.467 48.9672 330.742 51.0304 333.561 51.8557C336.381 52.681 337.069 52.062 332.874 54.0565C328.678 56.0509 330.879 56.6699 331.154 59.2146" fill="black"/>
<path opacity="0.07" d="M320.219 80.8096L315.543 109.213C315.543 109.213 315.611 114.303 316.505 114.99C317.399 115.678 320.425 116.228 321.044 116.71C321.732 117.191 328.954 119.598 327.028 115.541C326.615 114.647 316.849 109.213 321.182 103.436C325.515 97.7281 324.758 89.8191 322.695 84.2484C321.457 81.016 320.838 77.5773 321.044 74.1385L320.219 80.8096Z" fill="black"/>
<path d="M99.3853 129.02C99.179 129.02 99.0414 129.158 99.0414 129.364C99.0414 130.396 99.2478 132.94 101.38 132.94C103.856 132.94 230.263 132.872 237.896 132.872C238.172 132.872 238.584 132.39 238.859 132.046C239.203 131.634 239.753 130.946 240.029 129.502C240.097 129.158 239.891 128.883 239.547 128.814C239.478 128.814 239.478 128.814 239.41 128.814L99.3853 129.02Z" fill="url(#paint4_linear)"/>
<path d="M108.464 132.94C108.464 132.94 108.257 135.691 110.527 135.691C112.727 135.691 223.798 135.485 230.469 135.416C230.675 135.416 230.95 135.348 231.157 135.21C231.569 134.866 232.257 134.178 232.463 132.803L108.464 132.94Z" fill="url(#paint5_linear)"/>
<path d="M210.043 135.348H211.35L224.829 218.152L223.729 218.22L210.043 135.348Z" fill="url(#paint6_linear)"/>
<path d="M137.417 135.554H135.904L119.399 218.289L120.705 218.358L137.417 135.554Z" fill="url(#paint7_linear)"/>
<path d="M147.046 135.554H145.533L129.027 212.306L130.265 212.375L147.046 135.554Z" fill="url(#paint8_linear)"/>
<path d="M199.177 135.21H200.621L216.301 211.893L215.063 211.962L199.177 135.21Z" fill="url(#paint9_linear)"/>
<path d="M138.312 130.74L173.386 129.295L178.613 104.812L142.988 105.156L137.693 130.671" fill="url(#paint10_linear)"/>
<path d="M158.6 120.767C159.777 120.767 160.732 119.751 160.732 118.498C160.732 117.244 159.777 116.228 158.6 116.228C157.422 116.228 156.468 117.244 156.468 118.498C156.468 119.751 157.422 120.767 158.6 120.767Z" fill="url(#paint11_linear)"/>
<path d="M138.036 128.883H118.917C118.78 128.883 118.711 128.952 118.642 129.089L118.367 130.258C118.367 130.396 118.436 130.533 118.573 130.533C118.573 130.533 118.573 130.533 118.642 130.533L137.693 130.74C137.83 130.74 137.899 130.671 137.968 130.533L138.312 129.227C138.312 129.089 138.243 128.952 138.036 128.883Z" fill="url(#paint12_linear)"/>
<path d="M142.438 104.468L178.063 104.193C178.132 104.193 178.132 104.193 178.201 104.262L178.682 104.812L143.194 105.087C143.126 105.087 143.057 105.156 143.057 105.224L138.449 130.533C138.449 130.602 138.38 130.671 138.311 130.671H137.968C137.899 130.671 137.83 130.602 137.83 130.533L142.232 104.743C142.163 104.606 142.232 104.468 142.438 104.468Z" fill="url(#paint13_linear)"/>
</g>
<defs>
<linearGradient id="paint0_linear" x1="310.95" y1="159.092" x2="352.102" y2="159.092" gradientUnits="userSpaceOnUse">
<stop stop-color="#8DEFE3"/>
<stop offset="1" stop-color="#14CAB4"/>
</linearGradient>
<linearGradient id="paint1_linear" x1="306.251" y1="80.9839" x2="364.08" y2="80.9839" gradientUnits="userSpaceOnUse">
<stop stop-color="#F87B58"/>
<stop offset="0.41" stop-color="#F89453"/>
<stop offset="0.71" stop-color="#F8C548"/>
<stop offset="1" stop-color="#F89C51"/>
</linearGradient>
<linearGradient id="paint2_linear" x1="302.601" y1="88.5939" x2="366.858" y2="88.5939" gradientUnits="userSpaceOnUse">
<stop stop-color="#4A6485"/>
<stop offset="1" stop-color="#1A2431"/>
</linearGradient>
<linearGradient id="paint3_linear" x1="325.314" y1="33.4378" x2="344.636" y2="33.4378" gradientUnits="userSpaceOnUse">
<stop/>
<stop offset="1" stop-color="#504D59"/>
</linearGradient>
<linearGradient id="paint4_linear" x1="98.9807" y1="130.887" x2="240.175" y2="130.887" gradientUnits="userSpaceOnUse">
<stop stop-color="#4A6485"/>
<stop offset="1" stop-color="#1A2431"/>
</linearGradient>
<linearGradient id="paint5_linear" x1="108.405" y1="134.254" x2="232.581" y2="134.254" gradientUnits="userSpaceOnUse">
<stop stop-color="#4A6485"/>
<stop offset="1" stop-color="#1A2431"/>
</linearGradient>
<linearGradient id="paint6_linear" x1="210.037" y1="176.973" x2="224.843" y2="176.973" gradientUnits="userSpaceOnUse">
<stop stop-color="#4A6485"/>
<stop offset="1" stop-color="#1A2431"/>
</linearGradient>
<linearGradient id="paint7_linear" x1="119.391" y1="177.145" x2="137.435" y2="177.145" gradientUnits="userSpaceOnUse">
<stop stop-color="#4A6485"/>
<stop offset="1" stop-color="#1A2431"/>
</linearGradient>
<linearGradient id="paint8_linear" x1="129.019" y1="174.14" x2="147.063" y2="174.14" gradientUnits="userSpaceOnUse">
<stop stop-color="#4A6485"/>
<stop offset="1" stop-color="#1A2431"/>
</linearGradient>
<linearGradient id="paint9_linear" x1="199.169" y1="173.761" x2="216.318" y2="173.761" gradientUnits="userSpaceOnUse">
<stop stop-color="#4A6485"/>
<stop offset="1" stop-color="#1A2431"/>
</linearGradient>
<linearGradient id="paint10_linear" x1="137.675" y1="117.835" x2="178.652" y2="117.835" gradientUnits="userSpaceOnUse">
<stop stop-color="#4A6485"/>
<stop offset="1" stop-color="#1A2431"/>
</linearGradient>
<linearGradient id="paint11_linear" x1="156.466" y1="118.508" x2="160.736" y2="118.508" gradientUnits="userSpaceOnUse">
<stop stop-color="#4A6485"/>
<stop offset="1" stop-color="#1A2431"/>
</linearGradient>
<linearGradient id="paint12_linear" x1="118.358" y1="129.815" x2="138.33" y2="129.815" gradientUnits="userSpaceOnUse">
<stop stop-color="#4A6485"/>
<stop offset="1" stop-color="#1A2431"/>
</linearGradient>
<linearGradient id="paint13_linear" x1="137.812" y1="117.492" x2="178.721" y2="117.492" gradientUnits="userSpaceOnUse">
<stop stop-color="#4A6485"/>
<stop offset="1" stop-color="#1A2431"/>
</linearGradient>
<clipPath id="clip0">
<rect width="389" height="219.733" fill="white"/>
</clipPath>
</defs>
</svg>
